<?xml version="1.0" encoding="UTF-8"?>
<!DOCTYPE svg PUBLIC "-//W3C//DTD SVG 1.1//EN" "http://www.w3.org/Graphics/SVG/1.1/DTD/svg11.dtd">
<!-- Creator: CorelDRAW -->
<svg xmlns="http://www.w3.org/2000/svg" xml:space="preserve" width="297mm" height="210mm" style="shape-rendering:geometricPrecision; text-rendering:geometricPrecision; image-rendering:optimizeQuality; fill-rule:evenodd; clip-rule:evenodd"
viewBox="0 0 297 210"
 xmlns:xlink="http://www.w3.org/1999/xlink">
 <defs>
  <style type="text/css">
   <![CDATA[
    .str3 {stroke:#1F1A17;stroke-width:0.1601}
    .str0 {stroke:#1F1A17;stroke-width:0.2402}
    .str1 {stroke:#1F1A17;stroke-width:0.3704}
    .str2 {stroke:#1F1A17;stroke-width:0.4705}
    .fil0 {fill:none}
   ]]>
  </style>
 </defs>
 <g id="Слой_x0020_1">
  <metadata id="CorelCorpID_0Corel-Layer"/>
  <line class="fil0 str0" x1="200.098" y1="65.7756" x2="200.098" y2= "63.2027" />
  <line class="fil0 str0" x1="195.683" y1="63.2027" x2="195.683" y2= "65.7756" />
  <line class="fil0 str0" x1="195.683" y1="65.7756" x2="200.098" y2= "65.7756" />
  <line class="fil0 str0" x1="200.098" y1="63.2027" x2="195.683" y2= "63.2027" />
  <polyline class="fil0 str1" points="195.733,67.6878 196.424,67.6878 196.655,67.6177 196.735,67.5376 196.805,67.3874 196.805,67.2272 196.735,67.0771 196.655,66.997 196.424,66.9269 195.733,66.9269 195.733,68.5287 "/>
  <line class="fil0 str1" x1="196.274" y1="67.6878" x2="196.805" y2= "68.5287" />
  <polyline class="fil0 str1" points="197.486,67.2272 197.646,67.1572 197.876,66.9269 197.876,68.5287 "/>
  <polyline class="fil0 str1" points="199.558,68.5287 199.558,66.9269 198.787,67.9981 199.938,67.9981 "/>
  <line class="fil0 str0" x1="178.844" y1="144.395" x2="181.417" y2= "144.395" />
  <line class="fil0 str0" x1="181.417" y1="139.98" x2="178.844" y2= "139.98" />
  <line class="fil0 str0" x1="178.844" y1="139.98" x2="178.844" y2= "144.395" />
  <line class="fil0 str0" x1="181.417" y1="144.395" x2="181.417" y2= "139.98" />
  <polyline class="fil0 str1" points="176.562,143.033 176.412,143.103 176.251,143.263 176.181,143.414 176.181,143.724 176.251,143.874 176.412,144.024 176.562,144.104 176.792,144.184 177.173,144.184 177.403,144.104 177.563,144.024 177.713,143.874 177.783,143.724 177.783,143.414 177.713,143.263 177.563,143.103 177.403,143.033 "/>
  <polyline class="fil0 str1" points="176.181,142.422 176.181,141.581 176.792,142.042 176.792,141.812 176.872,141.661 176.942,141.581 177.173,141.501 177.333,141.501 177.563,141.581 177.713,141.732 177.783,141.962 177.783,142.192 177.713,142.422 177.633,142.503 177.483,142.583 "/>
  <polyline class="fil0 str1" points="176.181,140.66 176.251,140.891 176.412,140.971 176.562,140.971 176.712,140.891 176.792,140.741 176.872,140.43 176.942,140.2 177.102,140.05 177.253,139.97 177.483,139.97 177.633,140.05 177.713,140.13 177.783,140.36 177.783,140.66 177.713,140.891 177.633,140.971 177.483,141.051 177.253,141.051 177.102,140.971 176.942,140.821 176.872,140.59 176.792,140.28 176.712,140.13 176.562,140.05 176.412,140.05 176.251,140.13 176.181,140.36 176.181,140.66 "/>
  <line class="fil0 str0" x1="139.62" y1="93.5571" x2="139.62" y2= "96.13" />
  <line class="fil0 str0" x1="144.035" y1="96.13" x2="144.035" y2= "93.5571" />
  <line class="fil0 str0" x1="144.035" y1="93.5571" x2="139.62" y2= "93.5571" />
  <line class="fil0 str0" x1="139.62" y1="96.13" x2="144.035" y2= "96.13" />
  <polyline class="fil0 str1" points="141.692,91.3946 141.622,91.2444 141.462,91.0843 141.312,91.0142 141.001,91.0142 140.851,91.0843 140.701,91.2444 140.621,91.3946 140.541,91.6249 140.541,92.0053 140.621,92.2356 140.701,92.3957 140.851,92.5459 141.001,92.616 141.312,92.616 141.462,92.5459 141.622,92.3957 141.692,92.2356 "/>
  <polyline class="fil0 str1" points="143.144,91.5448 143.064,91.775 142.914,91.9352 142.683,92.0053 142.603,92.0053 142.373,91.9352 142.223,91.775 142.143,91.5448 142.143,91.4747 142.223,91.2444 142.373,91.0843 142.603,91.0142 142.683,91.0142 142.914,91.0843 143.064,91.2444 143.144,91.5448 143.144,91.9352 143.064,92.3157 142.914,92.5459 142.683,92.616 142.533,92.616 142.303,92.5459 142.223,92.3957 "/>
  <line class="fil0 str0" x1="129.699" y1="155.497" x2="129.699" y2= "158.07" />
  <line class="fil0 str0" x1="134.114" y1="158.07" x2="134.114" y2= "155.497" />
  <line class="fil0 str0" x1="134.114" y1="155.497" x2="129.699" y2= "155.497" />
  <line class="fil0 str0" x1="129.699" y1="158.07" x2="134.114" y2= "158.07" />
  <polyline class="fil0 str1" points="130.88,159.462 130.81,159.312 130.65,159.151 130.5,159.081 130.189,159.081 130.039,159.151 129.889,159.312 129.809,159.462 129.729,159.692 129.729,160.072 129.809,160.303 129.889,160.463 130.039,160.613 130.189,160.683 130.5,160.683 130.65,160.613 130.81,160.463 130.88,160.303 "/>
  <polyline class="fil0 str1" points="131.411,159.462 131.411,159.382 131.491,159.231 131.561,159.151 131.721,159.081 132.021,159.081 132.182,159.151 132.252,159.231 132.332,159.382 132.332,159.542 132.252,159.692 132.101,159.922 131.331,160.683 132.412,160.683 "/>
  <polyline class="fil0 str1" points="133.863,159.312 133.783,159.151 133.553,159.081 133.403,159.081 133.173,159.151 133.023,159.382 132.942,159.772 132.942,160.153 133.023,160.463 133.173,160.613 133.403,160.683 133.483,160.683 133.713,160.613 133.863,160.463 133.944,160.233 133.944,160.153 133.863,159.922 133.713,159.772 133.483,159.692 133.403,159.692 133.173,159.772 133.023,159.922 132.942,160.153 "/>
  <line class="fil0 str0" x1="131.721" y1="142.853" x2="131.721" y2= "140.28" />
  <line class="fil0 str0" x1="127.306" y1="140.28" x2="127.306" y2= "142.853" />
  <line class="fil0 str0" x1="127.306" y1="142.853" x2="131.721" y2= "142.853" />
  <line class="fil0 str0" x1="131.721" y1="140.28" x2="127.306" y2= "140.28" />
  <polyline class="fil0 str1" points="127.727,138.398 128.417,138.398 128.648,138.328 128.728,138.248 128.798,138.098 128.798,137.937 128.728,137.787 128.648,137.707 128.417,137.637 127.727,137.637 127.727,139.239 "/>
  <line class="fil0 str1" x1="128.267" y1="138.398" x2="128.798" y2= "139.239" />
  <polyline class="fil0 str1" points="130.249,137.867 130.169,137.707 129.939,137.637 129.789,137.637 129.559,137.707 129.408,137.937 129.328,138.328 129.328,138.708 129.408,139.019 129.559,139.169 129.789,139.239 129.869,139.239 130.099,139.169 130.249,139.019 130.329,138.788 130.329,138.708 130.249,138.478 130.099,138.328 129.869,138.248 129.789,138.248 129.559,138.328 129.408,138.478 129.328,138.708 "/>
  <polyline class="fil0 str1" points="131.551,139.239 131.551,137.637 130.78,138.708 131.931,138.708 "/>
  <line class="fil0 str0" x1="124.183" y1="158.04" x2="124.183" y2= "155.467" />
  <line class="fil0 str0" x1="119.768" y1="155.467" x2="119.768" y2= "158.04" />
  <line class="fil0 str0" x1="119.768" y1="158.04" x2="124.183" y2= "158.04" />
  <line class="fil0 str0" x1="124.183" y1="155.467" x2="119.768" y2= "155.467" />
  <polyline class="fil0 str1" points="120.889,159.402 120.819,159.251 120.659,159.091 120.508,159.021 120.198,159.021 120.048,159.091 119.898,159.251 119.818,159.402 119.737,159.632 119.737,160.012 119.818,160.243 119.898,160.403 120.048,160.553 120.198,160.623 120.508,160.623 120.659,160.553 120.819,160.403 120.889,160.243 "/>
  <polyline class="fil0 str1" points="121.419,159.402 121.419,159.322 121.499,159.171 121.57,159.091 121.73,159.021 122.03,159.021 122.19,159.091 122.26,159.171 122.34,159.322 122.34,159.482 122.26,159.632 122.11,159.862 121.339,160.623 122.421,160.623 "/>
  <polyline class="fil0 str1" points="123.181,160.623 123.952,159.021 122.871,159.021 "/>
  <line class="fil0 str0" x1="188.035" y1="144.395" x2="190.608" y2= "144.395" />
  <line class="fil0 str0" x1="190.608" y1="139.98" x2="188.035" y2= "139.98" />
  <line class="fil0 str0" x1="188.035" y1="139.98" x2="188.035" y2= "144.395" />
  <line class="fil0 str0" x1="190.608" y1="144.395" x2="190.608" y2= "139.98" />
  <polyline class="fil0 str1" points="186.183,138.128 186.033,138.198 185.872,138.358 185.802,138.508 185.802,138.818 185.872,138.969 186.033,139.119 186.183,139.199 186.413,139.279 186.793,139.279 187.024,139.199 187.184,139.119 187.334,138.969 187.404,138.818 187.404,138.508 187.334,138.358 187.184,138.198 187.024,138.128 "/>
  <polyline class="fil0 str1" points="185.802,137.517 185.802,136.676 186.413,137.136 186.413,136.906 186.493,136.756 186.563,136.676 186.793,136.596 186.954,136.596 187.184,136.676 187.334,136.826 187.404,137.056 187.404,137.287 187.334,137.517 187.254,137.597 187.104,137.677 "/>
  <polyline class="fil0 str1" points="186.333,135.144 186.563,135.224 186.723,135.374 186.793,135.605 186.793,135.685 186.723,135.915 186.563,136.065 186.333,136.145 186.263,136.145 186.033,136.065 185.872,135.915 185.802,135.685 185.802,135.605 185.872,135.374 186.033,135.224 186.333,135.144 186.723,135.144 187.104,135.224 187.334,135.374 187.404,135.605 187.404,135.755 187.334,135.985 187.184,136.065 "/>
  <line class="fil0 str0" x1="187.704" y1="139.98" x2="185.132" y2= "139.98" />
  <line class="fil0 str0" x1="185.132" y1="144.395" x2="187.704" y2= "144.395" />
  <line class="fil0 str0" x1="187.704" y1="144.395" x2="187.704" y2= "139.98" />
  <line class="fil0 str0" x1="185.132" y1="139.98" x2="185.132" y2= "144.395" />
  <polyline class="fil0 str1" points="189.506,139.079 189.506,138.388 189.436,138.158 189.356,138.077 189.206,138.007 189.046,138.007 188.896,138.077 188.816,138.158 188.746,138.388 188.746,139.079 190.347,139.079 "/>
  <line class="fil0 str1" x1="189.506" y1="138.538" x2="190.347" y2= "138.007" />
  <polyline class="fil0 str1" points="190.347,137.247 188.746,136.476 188.746,137.557 "/>
  <polyline class="fil0 str1" points="188.746,135.104 188.746,135.865 189.436,135.945 189.356,135.865 189.276,135.635 189.276,135.404 189.356,135.174 189.506,135.024 189.737,134.944 189.897,134.944 190.127,135.024 190.277,135.174 190.347,135.404 190.347,135.635 190.277,135.865 190.197,135.945 190.047,136.025 "/>
  <line class="fil0 str0" x1="134.174" y1="147.198" x2="134.174" y2= "144.625" />
  <line class="fil0 str0" x1="129.759" y1="144.625" x2="129.759" y2= "147.198" />
  <line class="fil0 str0" x1="129.759" y1="147.198" x2="134.174" y2= "147.198" />
  <line class="fil0 str0" x1="134.174" y1="144.625" x2="129.759" y2= "144.625" />
  <polyline class="fil0 str1" points="130.049,148.93 130.74,148.93 130.97,148.86 131.05,148.78 131.12,148.629 131.12,148.469 131.05,148.319 130.97,148.239 130.74,148.169 130.049,148.169 130.049,149.771 "/>
  <line class="fil0 str1" x1="130.59" y1="148.93" x2="131.12" y2= "149.771" />
  <polyline class="fil0 str1" points="132.572,148.399 132.492,148.239 132.262,148.169 132.111,148.169 131.881,148.239 131.731,148.469 131.651,148.86 131.651,149.24 131.731,149.551 131.881,149.701 132.111,149.771 132.191,149.771 132.422,149.701 132.572,149.551 132.652,149.32 132.652,149.24 132.572,149.01 132.422,148.86 132.191,148.78 132.111,148.78 131.881,148.86 131.731,149.01 131.651,149.24 "/>
  <polyline class="fil0 str1" points="134.104,148.399 134.024,148.239 133.793,148.169 133.643,148.169 133.413,148.239 133.263,148.469 133.183,148.86 133.183,149.24 133.263,149.551 133.413,149.701 133.643,149.771 133.723,149.771 133.953,149.701 134.104,149.551 134.184,149.32 134.184,149.24 134.104,149.01 133.953,148.86 133.723,148.78 133.643,148.78 133.413,148.86 133.263,149.01 133.183,149.24 "/>
  <line class="fil0 str0" x1="119.768" y1="144.655" x2="119.768" y2= "147.228" />
  <line class="fil0 str0" x1="124.183" y1="147.228" x2="124.183" y2= "144.655" />
  <line class="fil0 str0" x1="124.183" y1="144.655" x2="119.768" y2= "144.655" />
  <line class="fil0 str0" x1="119.768" y1="147.228" x2="124.183" y2= "147.228" />
  <polyline class="fil0 str1" points="119.878,149 120.568,149 120.799,148.93 120.879,148.85 120.949,148.7 120.949,148.539 120.879,148.389 120.799,148.309 120.568,148.239 119.878,148.239 119.878,149.841 "/>
  <line class="fil0 str1" x1="120.418" y1="149" x2="120.949" y2= "149.841" />
  <polyline class="fil0 str1" points="122.4,148.469 122.32,148.309 122.09,148.239 121.94,148.239 121.71,148.309 121.56,148.539 121.479,148.93 121.479,149.31 121.56,149.62 121.71,149.771 121.94,149.841 122.02,149.841 122.25,149.771 122.4,149.62 122.481,149.39 122.481,149.31 122.4,149.08 122.25,148.93 122.02,148.85 121.94,148.85 121.71,148.93 121.56,149.08 121.479,149.31 "/>
  <polyline class="fil0 str1" points="123.241,149.841 124.012,148.239 122.931,148.239 "/>
  <line class="fil0 str0" x1="113.711" y1="135.254" x2="113.711" y2= "132.681" />
  <line class="fil0 str0" x1="109.296" y1="132.681" x2="109.296" y2= "135.254" />
  <line class="fil0 str0" x1="109.296" y1="135.254" x2="113.711" y2= "135.254" />
  <line class="fil0 str0" x1="113.711" y1="132.681" x2="109.296" y2= "132.681" />
  <polyline class="fil0 str1" points="109.586,137.166 110.277,137.166 110.507,137.096 110.587,137.016 110.657,136.866 110.657,136.706 110.587,136.556 110.507,136.476 110.277,136.406 109.586,136.406 109.586,138.007 "/>
  <line class="fil0 str1" x1="110.126" y1="137.166" x2="110.657" y2= "138.007" />
  <polyline class="fil0 str1" points="111.188,136.786 111.188,136.706 111.268,136.556 111.338,136.476 111.498,136.406 111.798,136.406 111.959,136.476 112.029,136.556 112.109,136.706 112.109,136.866 112.029,137.016 111.879,137.247 111.108,138.007 112.189,138.007 "/>
  <polyline class="fil0 str1" points="112.8,136.406 113.641,136.406 113.18,137.016 113.41,137.016 113.56,137.096 113.641,137.166 113.721,137.397 113.721,137.557 113.641,137.787 113.49,137.937 113.26,138.007 113.03,138.007 112.8,137.937 112.72,137.857 112.639,137.707 "/>
  <line class="fil0 str0" x1="111.768" y1="95.8096" x2="109.946" y2= "97.6217" />
  <line class="fil0 str0" x1="113.07" y1="100.745" x2="114.892" y2= "98.9231" />
  <line class="fil0 str0" x1="114.892" y1="98.9231" x2="111.768" y2= "95.8096" />
  <line class="fil0 str0" x1="109.946" y1="97.6217" x2="113.07" y2= "100.745" />
  <polyline class="fil0 str1" points="112.069,93.4069 111.999,93.2567 111.839,93.0965 111.688,93.0265 111.378,93.0265 111.228,93.0965 111.078,93.2567 110.998,93.4069 110.917,93.6372 110.917,94.0176 110.998,94.2478 111.078,94.408 111.228,94.5582 111.378,94.6283 111.688,94.6283 111.839,94.5582 111.999,94.408 112.069,94.2478 "/>
  <polyline class="fil0 str1" points="112.75,93.3268 112.91,93.2567 113.14,93.0265 113.14,94.6283 "/>
  <polyline class="fil0 str1" points="114.131,93.4069 114.131,93.3268 114.211,93.1766 114.281,93.0965 114.441,93.0265 114.742,93.0265 114.902,93.0965 114.972,93.1766 115.052,93.3268 115.052,93.487 114.972,93.6372 114.822,93.8674 114.051,94.6283 115.132,94.6283 "/>
  <line class="fil0 str0" x1="107.333" y1="96.8708" x2="105.511" y2= "95.0487" />
  <line class="fil0 str0" x1="102.398" y1="98.1723" x2="104.22" y2= "99.9943" />
  <line class="fil0 str0" x1="104.22" y1="99.9943" x2="107.333" y2= "96.8708" />
  <line class="fil0 str0" x1="105.511" y1="95.0487" x2="102.398" y2= "98.1723" />
  <polyline class="fil0 str1" points="103.92,92.4959 103.849,92.3457 103.689,92.1855 103.539,92.1154 103.229,92.1154 103.079,92.1855 102.928,92.3457 102.848,92.4959 102.768,92.7261 102.768,93.1065 102.848,93.3368 102.928,93.497 103.079,93.6472 103.229,93.7172 103.539,93.7172 103.689,93.6472 103.849,93.497 103.92,93.3368 "/>
  <polyline class="fil0 str1" points="104.6,92.4158 104.761,92.3457 104.991,92.1154 104.991,93.7172 "/>
  <polyline class="fil0 str1" points="106.132,92.4158 106.292,92.3457 106.523,92.1154 106.523,93.7172 "/>
  <line class="fil0 str0" x1="107.694" y1="55.9845" x2="105.121" y2= "55.9845" />
  <line class="fil0 str0" x1="105.121" y1="60.3895" x2="107.694" y2= "60.3895" />
  <line class="fil0 str0" x1="107.694" y1="60.3895" x2="107.694" y2= "55.9845" />
  <line class="fil0 str0" x1="105.121" y1="55.9845" x2="105.121" y2= "60.3895" />
  <polyline class="fil0 str1" points="106.242,55.0735 106.242,54.3827 106.172,54.1524 106.092,54.0723 105.942,54.0023 105.782,54.0023 105.631,54.0723 105.551,54.1524 105.481,54.3827 105.481,55.0735 107.083,55.0735 "/>
  <line class="fil0 str1" x1="106.242" y1="54.5329" x2="107.083" y2= "54.0023" />
  <polyline class="fil0 str1" points="105.712,52.5506 105.551,52.6307 105.481,52.861 105.481,53.0111 105.551,53.2414 105.782,53.3916 106.172,53.4717 106.552,53.4717 106.863,53.3916 107.013,53.2414 107.083,53.0111 107.083,52.9311 107.013,52.7008 106.863,52.5506 106.633,52.4705 106.552,52.4705 106.322,52.5506 106.172,52.7008 106.092,52.9311 106.092,53.0111 106.172,53.2414 106.322,53.3916 106.552,53.4717 "/>
  <polyline class="fil0 str1" points="105.782,51.7898 105.712,51.6296 105.481,51.3993 107.083,51.3993 "/>
  <line class="fil0 str0" x1="104.75" y1="55.9845" x2="102.177" y2= "55.9845" />
  <line class="fil0 str0" x1="102.177" y1="60.3895" x2="104.75" y2= "60.3895" />
  <line class="fil0 str0" x1="104.75" y1="60.3895" x2="104.75" y2= "55.9845" />
  <line class="fil0 str0" x1="102.177" y1="55.9845" x2="102.177" y2= "60.3895" />
  <polyline class="fil0 str1" points="103.419,55.1336 103.419,54.4428 103.349,54.2125 103.269,54.1324 103.119,54.0623 102.958,54.0623 102.808,54.1324 102.728,54.2125 102.658,54.4428 102.658,55.1336 104.26,55.1336 "/>
  <line class="fil0 str1" x1="103.419" y1="54.5929" x2="104.26" y2= "54.0623" />
  <polyline class="fil0 str1" points="102.888,52.6107 102.728,52.6908 102.658,52.921 102.658,53.0712 102.728,53.3015 102.958,53.4516 103.349,53.5317 103.729,53.5317 104.04,53.4516 104.19,53.3015 104.26,53.0712 104.26,52.9911 104.19,52.7609 104.04,52.6107 103.809,52.5306 103.729,52.5306 103.499,52.6107 103.349,52.7609 103.269,52.9911 103.269,53.0712 103.349,53.3015 103.499,53.4516 103.729,53.5317 "/>
  <polyline class="fil0 str1" points="103.039,52 102.958,52 102.808,51.9199 102.728,51.8498 102.658,51.6897 102.658,51.3893 102.728,51.2291 102.808,51.159 102.958,51.079 103.119,51.079 103.269,51.159 103.499,51.3092 104.26,52.0801 104.26,50.9989 "/>
  <line class="fil0 str0" x1="140.221" y1="82.2042" x2="137.648" y2= "82.2042" />
  <line class="fil0 str0" x1="137.648" y1="86.6192" x2="140.221" y2= "86.6192" />
  <line class="fil0 str0" x1="140.221" y1="86.6192" x2="140.221" y2= "82.2042" />
  <line class="fil0 str0" x1="137.648" y1="82.2042" x2="137.648" y2= "86.6192" />
  <polyline class="fil0 str1" points="138.449,80.1319 138.298,80.2019 138.138,80.3621 138.068,80.5123 138.068,80.8226 138.138,80.9728 138.298,81.123 138.449,81.2031 138.679,81.2832 139.059,81.2832 139.29,81.2031 139.45,81.123 139.6,80.9728 139.67,80.8226 139.67,80.5123 139.6,80.3621 139.45,80.2019 139.29,80.1319 "/>
  <polyline class="fil0 str1" points="139.67,79.371 138.068,78.6001 138.068,79.6813 "/>
  <line class="fil0 str0" x1="131.16" y1="82.2042" x2="128.577" y2= "82.2042" />
  <line class="fil0 str0" x1="128.577" y1="86.6192" x2="131.16" y2= "86.6192" />
  <line class="fil0 str0" x1="131.16" y1="86.6192" x2="131.16" y2= "82.2042" />
  <line class="fil0 str0" x1="128.577" y1="82.2042" x2="128.577" y2= "86.6192" />
  <polyline class="fil0 str1" points="129.328,80.1319 129.178,80.2019 129.018,80.3621 128.948,80.5123 128.948,80.8226 129.018,80.9728 129.178,81.123 129.328,81.2031 129.559,81.2832 129.939,81.2832 130.169,81.2031 130.329,81.123 130.48,80.9728 130.55,80.8226 130.55,80.5123 130.48,80.3621 130.329,80.2019 130.169,80.1319 "/>
  <polyline class="fil0 str1" points="128.948,78.7603 128.948,79.5212 129.639,79.6013 129.559,79.5212 129.479,79.2909 129.479,79.0606 129.559,78.8304 129.709,78.6802 129.939,78.6001 130.099,78.6001 130.329,78.6802 130.48,78.8304 130.55,79.0606 130.55,79.2909 130.48,79.5212 130.399,79.6013 130.249,79.6813 "/>
  <line class="fil0 str0" x1="97.9628" y1="122.079" x2="97.9628" y2= "119.506" />
  <line class="fil0 str0" x1="93.5478" y1="119.506" x2="93.5478" y2= "122.079" />
  <line class="fil0 str0" x1="93.5478" y1="122.079" x2="97.9628" y2= "122.079" />
  <line class="fil0 str0" x1="97.9628" y1="119.506" x2="93.5478" y2= "119.506" />
  <polyline class="fil0 str1" points="94.3587,117.364 94.2886,117.214 94.1284,117.054 93.9783,116.984 93.6679,116.984 93.5177,117.054 93.3676,117.214 93.2875,117.364 93.2074,117.594 93.2074,117.975 93.2875,118.205 93.3676,118.365 93.5177,118.515 93.6679,118.585 93.9783,118.585 94.1284,118.515 94.2886,118.365 94.3587,118.205 "/>
  <polyline class="fil0 str1" points="94.9694,116.984 95.8103,116.984 95.3498,117.594 95.5801,117.594 95.7302,117.674 95.8103,117.744 95.8904,117.975 95.8904,118.135 95.8103,118.365 95.6602,118.515 95.4299,118.585 95.1996,118.585 94.9694,118.515 94.8893,118.435 94.8092,118.285 "/>
  <polyline class="fil0 str1" points="96.421,117.364 96.421,117.284 96.5011,117.134 96.5712,117.054 96.7314,116.984 97.0317,116.984 97.1919,117.054 97.262,117.134 97.3421,117.284 97.3421,117.444 97.262,117.594 97.1118,117.825 96.3409,118.585 97.4222,118.585 "/>
  <line class="fil0 str0" x1="83.4964" y1="121.309" x2="83.4964" y2= "123.881" />
  <line class="fil0 str0" x1="87.9114" y1="123.881" x2="87.9114" y2= "121.309" />
  <line class="fil0 str0" x1="87.9114" y1="121.309" x2="83.4964" y2= "121.309" />
  <line class="fil0 str0" x1="83.4964" y1="123.881" x2="87.9114" y2= "123.881" />
  <polyline class="fil0 str1" points="84.6777,125.153 84.6077,125.003 84.4475,124.843 84.2973,124.772 83.9869,124.772 83.8368,124.843 83.6866,125.003 83.6065,125.153 83.5264,125.383 83.5264,125.763 83.6065,125.994 83.6866,126.154 83.8368,126.304 83.9869,126.374 84.2973,126.374 84.4475,126.304 84.6077,126.154 84.6777,125.994 "/>
  <polyline class="fil0 str1" points="85.2884,124.772 86.1294,124.772 85.6689,125.383 85.8991,125.383 86.0493,125.463 86.1294,125.533 86.2095,125.763 86.2095,125.924 86.1294,126.154 85.9792,126.304 85.7489,126.374 85.5187,126.374 85.2884,126.304 85.2083,126.224 85.1282,126.074 "/>
  <polyline class="fil0 str1" points="86.8202,124.772 87.6611,124.772 87.2006,125.383 87.4308,125.383 87.581,125.463 87.6611,125.533 87.7412,125.763 87.7412,125.924 87.6611,126.154 87.5109,126.304 87.2807,126.374 87.0504,126.374 86.8202,126.304 86.7401,126.224 86.66,126.074 "/>
  <line class="fil0 str0" x1="206.956" y1="149.891" x2="206.956" y2= "147.318" />
  <line class="fil0 str0" x1="202.541" y1="147.318" x2="202.541" y2= "149.891" />
  <line class="fil0 str0" x1="202.541" y1="149.891" x2="206.956" y2= "149.891" />
  <line class="fil0 str0" x1="206.956" y1="147.318" x2="202.541" y2= "147.318" />
  <polyline class="fil0 str1" points="199.007,148.129 198.937,147.979 198.777,147.819 198.627,147.748 198.316,147.748 198.166,147.819 198.016,147.979 197.936,148.129 197.856,148.359 197.856,148.739 197.936,148.97 198.016,149.13 198.166,149.28 198.316,149.35 198.627,149.35 198.777,149.28 198.937,149.13 199.007,148.97 "/>
  <polyline class="fil0 str1" points="199.618,147.748 200.459,147.748 199.998,148.359 200.229,148.359 200.379,148.439 200.459,148.509 200.539,148.739 200.539,148.9 200.459,149.13 200.309,149.28 200.078,149.35 199.848,149.35 199.618,149.28 199.538,149.2 199.458,149.05 "/>
  <polyline class="fil0 str1" points="201.22,148.049 201.38,147.979 201.61,147.748 201.61,149.35 "/>
  <line class="fil0 str0" x1="165.79" y1="101.346" x2="163.968" y2= "99.5238" />
  <line class="fil0 str0" x1="160.844" y1="102.647" x2="162.666" y2= "104.469" />
  <line class="fil0 str0" x1="162.666" y1="104.469" x2="165.79" y2= "101.346" />
  <line class="fil0 str0" x1="163.968" y1="99.5238" x2="160.844" y2= "102.647" />
  <polyline class="fil0 str1" points="167.091,102.177 167.021,102.027 166.861,101.867 166.711,101.796 166.4,101.796 166.25,101.867 166.1,102.027 166.02,102.177 165.94,102.407 165.94,102.787 166.02,103.018 166.1,103.178 166.25,103.328 166.4,103.398 166.711,103.398 166.861,103.328 167.021,103.178 167.091,103.018 "/>
  <polyline class="fil0 str1" points="167.772,102.097 167.932,102.027 168.162,101.796 168.162,103.398 "/>
  <polyline class="fil0 str1" points="169.464,101.796 169.233,101.867 169.153,102.027 169.153,102.177 169.233,102.327 169.384,102.407 169.694,102.487 169.924,102.557 170.074,102.717 170.155,102.868 170.155,103.098 170.074,103.248 169.994,103.328 169.764,103.398 169.464,103.398 169.233,103.328 169.153,103.248 169.073,103.098 169.073,102.868 169.153,102.717 169.304,102.557 169.534,102.487 169.844,102.407 169.994,102.327 170.074,102.177 170.074,102.027 169.994,101.867 169.764,101.796 169.464,101.796 "/>
  <line class="fil0 str0" x1="174.61" y1="87.1598" x2="174.61" y2= "84.5869" />
  <line class="fil0 str0" x1="170.195" y1="84.5869" x2="170.195" y2= "87.1598" />
  <line class="fil0 str0" x1="170.195" y1="87.1598" x2="174.61" y2= "87.1598" />
  <line class="fil0 str0" x1="174.61" y1="84.5869" x2="170.195" y2= "84.5869" />
  <polyline class="fil0 str1" points="170.735,82.7648 171.426,82.7648 171.656,82.6948 171.736,82.6147 171.806,82.4645 171.806,82.3043 171.736,82.1541 171.656,82.0741 171.426,82.004 170.735,82.004 170.735,83.6058 "/>
  <line class="fil0 str1" x1="171.276" y1="82.7648" x2="171.806" y2= "83.6058" />
  <polyline class="fil0 str1" points="172.487,82.3043 172.647,82.2342 172.878,82.004 172.878,83.6058 "/>
  <polyline class="fil0 str1" points="174.79,82.5346 174.71,82.7648 174.56,82.925 174.329,82.9951 174.249,82.9951 174.019,82.925 173.869,82.7648 173.789,82.5346 173.789,82.4645 173.869,82.2342 174.019,82.0741 174.249,82.004 174.329,82.004 174.56,82.0741 174.71,82.2342 174.79,82.5346 174.79,82.925 174.71,83.3055 174.56,83.5357 174.329,83.6058 174.179,83.6058 173.949,83.5357 173.869,83.3855 "/>
  <line class="fil0 str0" x1="122.22" y1="140.3" x2="122.22" y2= "142.873" />
  <line class="fil0 str0" x1="126.635" y1="142.873" x2="126.635" y2= "140.3" />
  <line class="fil0 str0" x1="126.635" y1="140.3" x2="122.22" y2= "140.3" />
  <line class="fil0 str0" x1="122.22" y1="142.873" x2="126.635" y2= "142.873" />
  <polyline class="fil0 str1" points="122.451,138.458 123.141,138.458 123.372,138.388 123.452,138.308 123.522,138.158 123.522,137.997 123.452,137.847 123.372,137.767 123.141,137.697 122.451,137.697 122.451,139.299 "/>
  <line class="fil0 str1" x1="122.991" y1="138.458" x2="123.522" y2= "139.299" />
  <polyline class="fil0 str1" points="124.973,137.927 124.893,137.767 124.663,137.697 124.513,137.697 124.283,137.767 124.132,137.997 124.052,138.388 124.052,138.768 124.132,139.079 124.283,139.229 124.513,139.299 124.593,139.299 124.823,139.229 124.973,139.079 125.054,138.848 125.054,138.768 124.973,138.538 124.823,138.388 124.593,138.308 124.513,138.308 124.283,138.388 124.132,138.538 124.052,138.768 "/>
  <polyline class="fil0 str1" points="126.425,137.697 125.664,137.697 125.584,138.388 125.664,138.308 125.894,138.228 126.125,138.228 126.355,138.308 126.505,138.458 126.585,138.688 126.585,138.848 126.505,139.079 126.355,139.229 126.125,139.299 125.894,139.299 125.664,139.229 125.584,139.149 125.504,138.999 "/>
  <line class="fil0 str0" x1="129.208" y1="131.54" x2="129.208" y2= "134.113" />
  <line class="fil0 str0" x1="133.623" y1="134.113" x2="133.623" y2= "131.54" />
  <line class="fil0 str0" x1="133.623" y1="131.54" x2="129.208" y2= "131.54" />
  <line class="fil0 str0" x1="129.208" y1="134.113" x2="133.623" y2= "134.113" />
  <polyline class="fil0 str1" points="124.473,133.002 125.164,133.002 125.394,132.932 125.474,132.852 125.544,132.701 125.544,132.541 125.474,132.391 125.394,132.311 125.164,132.241 124.473,132.241 124.473,133.843 "/>
  <line class="fil0 str1" x1="125.013" y1="133.002" x2="125.544" y2= "133.843" />
  <polyline class="fil0 str1" points="126.996,132.471 126.916,132.311 126.685,132.241 126.535,132.241 126.305,132.311 126.155,132.541 126.075,132.932 126.075,133.312 126.155,133.622 126.305,133.773 126.535,133.843 126.615,133.843 126.846,133.773 126.996,133.622 127.076,133.392 127.076,133.312 126.996,133.082 126.846,132.932 126.615,132.852 126.535,132.852 126.305,132.932 126.155,133.082 126.075,133.312 "/>
  <polyline class="fil0 str1" points="128.527,132.772 128.447,133.002 128.297,133.162 128.067,133.232 127.987,133.232 127.757,133.162 127.606,133.002 127.526,132.772 127.526,132.701 127.606,132.471 127.757,132.311 127.987,132.241 128.067,132.241 128.297,132.311 128.447,132.471 128.527,132.772 128.527,133.162 128.447,133.542 128.297,133.773 128.067,133.843 127.917,133.843 127.686,133.773 127.606,133.622 "/>
  <line class="fil0 str0" x1="138.639" y1="131.019" x2="138.639" y2= "128.447" />
  <line class="fil0 str0" x1="134.234" y1="128.447" x2="134.234" y2= "131.019" />
  <line class="fil0 str0" x1="134.234" y1="131.019" x2="138.639" y2= "131.019" />
  <line class="fil0 str0" x1="138.639" y1="128.447" x2="134.234" y2= "128.447" />
  <polyline class="fil0 str1" points="129.839,129.378 129.769,129.227 129.609,129.067 129.458,128.997 129.148,128.997 128.998,129.067 128.848,129.227 128.768,129.378 128.688,129.608 128.688,129.988 128.768,130.219 128.848,130.379 128.998,130.529 129.148,130.599 129.458,130.599 129.609,130.529 129.769,130.379 129.839,130.219 "/>
  <polyline class="fil0 str1" points="130.369,129.378 130.369,129.298 130.45,129.147 130.52,129.067 130.68,128.997 130.98,128.997 131.14,129.067 131.21,129.147 131.291,129.298 131.291,129.458 131.21,129.608 131.06,129.838 130.289,130.599 131.371,130.599 "/>
  <polyline class="fil0 str1" points="132.592,130.599 132.592,128.997 131.821,130.068 132.972,130.068 "/>
  <line class="fil0 str0" x1="138.709" y1="134.083" x2="138.709" y2= "131.51" />
  <line class="fil0 str0" x1="134.294" y1="131.51" x2="134.294" y2= "134.083" />
  <line class="fil0 str0" x1="134.294" y1="134.083" x2="138.709" y2= "134.083" />
  <line class="fil0 str0" x1="138.709" y1="131.51" x2="134.294" y2= "131.51" />
  <polyline class="fil0 str1" points="140.741,132.501 140.671,132.351 140.511,132.191 140.361,132.121 140.05,132.121 139.9,132.191 139.75,132.351 139.67,132.501 139.59,132.731 139.59,133.112 139.67,133.342 139.75,133.502 139.9,133.653 140.05,133.723 140.361,133.723 140.511,133.653 140.671,133.502 140.741,133.342 "/>
  <polyline class="fil0 str1" points="141.352,132.121 142.193,132.121 141.732,132.731 141.963,132.731 142.113,132.812 142.193,132.882 142.273,133.112 142.273,133.272 142.193,133.502 142.043,133.653 141.812,133.723 141.582,133.723 141.352,133.653 141.272,133.572 141.192,133.422 "/>
  <polyline class="fil0 str1" points="143.184,132.121 142.954,132.191 142.803,132.421 142.724,132.812 142.724,133.042 142.803,133.422 142.954,133.653 143.184,133.723 143.344,133.723 143.574,133.653 143.725,133.422 143.805,133.042 143.805,132.812 143.725,132.421 143.574,132.191 143.344,132.121 143.184,132.121 "/>
  <line class="fil0 str1" x1="143.725" y1="132.421" x2="142.803" y2= "133.422" />
  <line class="fil0 str0" x1="117.995" y1="125.694" x2="117.995" y2= "123.12" />
  <line class="fil0 str0" x1="113.581" y1="123.12" x2="113.581" y2= "125.694" />
  <line class="fil0 str0" x1="113.581" y1="125.694" x2="117.995" y2= "125.694" />
  <line class="fil0 str0" x1="117.995" y1="123.12" x2="113.581" y2= "123.12" />
  <polyline class="fil0 str1" points="120.068,123.921 119.998,123.771 119.838,123.611 119.687,123.541 119.377,123.541 119.227,123.611 119.077,123.771 118.997,123.921 118.917,124.152 118.917,124.532 118.997,124.762 119.077,124.923 119.227,125.073 119.377,125.143 119.687,125.143 119.838,125.073 119.998,124.923 120.068,124.762 "/>
  <polyline class="fil0 str1" points="120.749,123.841 120.909,123.771 121.139,123.541 121.139,125.143 "/>
  <line class="fil0 str0" x1="143.154" y1="104.69" x2="144.976" y2= "102.878" />
  <line class="fil0 str0" x1="141.852" y1="99.7541" x2="140.03" y2= "101.576" />
  <line class="fil0 str0" x1="140.03" y1="101.576" x2="143.154" y2= "104.69" />
  <line class="fil0 str0" x1="144.976" y1="102.878" x2="141.852" y2= "99.7541" />
  <polyline class="fil0 str1" points="136.637,103.028 136.566,102.878 136.406,102.717 136.256,102.647 135.946,102.647 135.796,102.717 135.645,102.878 135.565,103.028 135.485,103.258 135.485,103.638 135.565,103.869 135.645,104.029 135.796,104.179 135.946,104.249 136.256,104.249 136.406,104.179 136.566,104.029 136.637,103.869 "/>
  <polyline class="fil0 str1" points="137.317,102.948 137.477,102.878 137.708,102.647 137.708,104.249 "/>
  <polyline class="fil0 str1" points="138.929,104.249 139.7,102.647 138.619,102.647 "/>
  <line class="fil0 str0" x1="142.193" y1="83.8961" x2="144.015" y2= "85.7182" />
  <line class="fil0 str0" x1="147.138" y1="82.5946" x2="145.316" y2= "80.7726" />
  <line class="fil0 str0" x1="145.316" y1="80.7726" x2="142.193" y2= "83.8961" />
  <line class="fil0 str0" x1="144.015" y1="85.7182" x2="147.138" y2= "82.5946" />
  <polyline class="fil0 str1" points="142.643,86.7994 142.573,86.6492 142.413,86.4891 142.263,86.419 141.953,86.419 141.802,86.4891 141.652,86.6492 141.572,86.7994 141.492,87.0297 141.492,87.4101 141.572,87.6404 141.652,87.8005 141.802,87.9507 141.953,88.0208 142.263,88.0208 142.413,87.9507 142.573,87.8005 142.643,87.6404 "/>
  <polyline class="fil0 str1" points="143.324,86.7193 143.484,86.6492 143.715,86.419 143.715,88.0208 "/>
  <polyline class="fil0 str1" points="145.627,86.6492 145.547,86.4891 145.316,86.419 145.166,86.419 144.936,86.4891 144.786,86.7193 144.706,87.1098 144.706,87.4902 144.786,87.8005 144.936,87.9507 145.166,88.0208 145.246,88.0208 145.477,87.9507 145.627,87.8005 145.707,87.5703 145.707,87.4902 145.627,87.2599 145.477,87.1098 145.246,87.0297 145.166,87.0297 144.936,87.1098 144.786,87.2599 144.706,87.4902 "/>
  <line class="fil0 str0" x1="104.941" y1="77.1084" x2="104.941" y2= "74.5355" />
  <line class="fil0 str0" x1="100.536" y1="74.5355" x2="100.536" y2= "77.1084" />
  <line class="fil0 str0" x1="100.536" y1="77.1084" x2="104.941" y2= "77.1084" />
  <line class="fil0 str0" x1="104.941" y1="74.5355" x2="100.536" y2= "74.5355" />
  <polyline class="fil0 str1" points="95.6201,75.6568 96.3109,75.6568 96.5412,75.5867 96.6213,75.5066 96.6913,75.3565 96.6913,75.1963 96.6213,75.0461 96.5412,74.966 96.3109,74.8959 95.6201,74.8959 95.6201,76.4977 "/>
  <line class="fil0 str1" x1="96.1607" y1="75.6568" x2="96.6913" y2= "76.4977" />
  <polyline class="fil0 str1" points="97.302,74.8959 98.143,74.8959 97.6825,75.5066 97.9127,75.5066 98.0629,75.5867 98.143,75.6568 98.2231,75.8871 98.2231,76.0472 98.143,76.2775 97.9928,76.4277 97.7625,76.4977 97.5323,76.4977 97.302,76.4277 97.2219,76.3476 97.1418,76.1974 "/>
  <polyline class="fil0 str1" points="98.8338,74.8959 99.6747,74.8959 99.2142,75.5066 99.4445,75.5066 99.5946,75.5867 99.6747,75.6568 99.7548,75.8871 99.7548,76.0472 99.6747,76.2775 99.5245,76.4277 99.2943,76.4977 99.064,76.4977 98.8338,76.4277 98.7537,76.3476 98.6736,76.1974 "/>
  <line class="fil0 str1" x1="167.391" y1="145.886" x2="167.401" y2= "124.873" />
  <line class="fil0 str1" x1="151.714" y1="145.886" x2="151.714" y2= "124.873" />
  <line class="fil0 str1" x1="151.714" y1="124.813" x2="167.391" y2= "124.813" />
  <line class="fil0 str1" x1="151.714" y1="145.886" x2="167.391" y2= "145.886" />
  <polyline class="fil0 str1" points="156.099,146.918 156.099,148.519 156.639,148.519 156.869,148.449 157.02,148.299 157.09,148.139 157.17,147.909 157.17,147.528 157.09,147.298 157.02,147.148 156.869,146.998 156.639,146.918 156.099,146.918 "/>
  <polyline class="fil0 str1" points="157.7,146.918 157.7,148.519 158.241,148.519 158.471,148.449 158.622,148.299 158.691,148.139 158.772,147.909 158.772,147.528 158.691,147.298 158.622,147.148 158.471,146.998 158.241,146.918 157.7,146.918 "/>
  <polyline class="fil0 str1" points="159.542,148.519 160.303,146.918 159.232,146.918 "/>
  <line class="fil0 str0" x1="181.728" y1="144.395" x2="184.301" y2= "144.395" />
  <line class="fil0 str0" x1="184.301" y1="139.98" x2="181.728" y2= "139.98" />
  <line class="fil0 str0" x1="181.728" y1="139.98" x2="181.728" y2= "144.395" />
  <line class="fil0 str0" x1="184.301" y1="144.395" x2="184.301" y2= "139.98" />
  <polyline class="fil0 str1" points="183.069,139.079 183.069,138.388 182.999,138.158 182.919,138.077 182.769,138.007 182.609,138.007 182.459,138.077 182.378,138.158 182.308,138.388 182.308,139.079 183.91,139.079 "/>
  <line class="fil0 str1" x1="183.069" y1="138.538" x2="183.91" y2= "138.007" />
  <polyline class="fil0 str1" points="183.91,137.247 182.308,136.476 182.308,137.557 "/>
  <polyline class="fil0 str1" points="182.539,135.024 182.378,135.104 182.308,135.334 182.308,135.485 182.378,135.715 182.609,135.865 182.999,135.945 183.38,135.945 183.69,135.865 183.84,135.715 183.91,135.485 183.91,135.404 183.84,135.174 183.69,135.024 183.46,134.944 183.38,134.944 183.149,135.024 182.999,135.174 182.919,135.404 182.919,135.485 182.999,135.715 183.149,135.865 183.38,135.945 "/>
  <line class="fil0 str2" x1="172.247" y1="97.7218" x2="174.339" y2= "97.7218" />
  <line class="fil0 str2" x1="173.298" y1="98.773" x2="173.298" y2= "96.6706" />
  <line class="fil0 str1" x1="171.156" y1="93.7273" x2="174.269" y2= "93.7273" />
  <line class="fil0 str1" x1="174.269" y1="93.7273" x2="174.269" y2= "90.6137" />
  <line class="fil0 str1" x1="171.156" y1="90.6137" x2="171.156" y2= "93.7273" />
  <line class="fil0 str1" x1="174.269" y1="90.6137" x2="171.156" y2= "90.6137" />
  <polyline class="fil0 str1" points="177.513,92.586 177.443,92.4358 177.283,92.2756 177.132,92.2055 176.822,92.2055 176.672,92.2756 176.522,92.4358 176.442,92.586 176.362,92.8162 176.362,93.1967 176.442,93.4269 176.522,93.5871 176.672,93.7373 176.822,93.8073 177.132,93.8073 177.283,93.7373 177.443,93.5871 177.513,93.4269 "/>
  <polyline class="fil0 str1" points="178.734,93.8073 178.734,92.2055 177.963,93.2767 179.115,93.2767 "/>
  <polyline class="fil0 str1" points="179.575,92.586 179.575,92.5059 179.655,92.3557 179.725,92.2756 179.886,92.2055 180.186,92.2055 180.346,92.2756 180.416,92.3557 180.496,92.5059 180.496,92.6661 180.416,92.8162 180.266,93.0465 179.495,93.8073 180.576,93.8073 "/>
  <line class="fil0 str0" x1="156.96" y1="107.183" x2="158.782" y2= "108.995" />
  <line class="fil0 str0" x1="161.895" y1="105.881" x2="160.083" y2= "104.059" />
  <line class="fil0 str0" x1="160.083" y1="104.059" x2="156.96" y2= "107.183" />
  <line class="fil0 str0" x1="158.782" y1="108.995" x2="161.895" y2= "105.881" />
  <polyline class="fil0 str1" points="161.975,107.883 162.666,107.883 162.896,107.813 162.976,107.733 163.047,107.583 163.047,107.423 162.976,107.273 162.896,107.193 162.666,107.122 161.975,107.122 161.975,108.724 "/>
  <line class="fil0 str1" x1="162.516" y1="107.883" x2="163.047" y2= "108.724" />
  <polyline class="fil0 str1" points="163.727,107.423 163.887,107.353 164.118,107.122 164.118,108.724 "/>
  <polyline class="fil0 str1" points="165.339,108.724 166.11,107.122 165.029,107.122 "/>
  <line class="fil0 str0" x1="146.207" y1="104.449" x2="144.385" y2= "106.261" />
  <line class="fil0 str0" x1="147.499" y1="109.385" x2="149.321" y2= "107.563" />
  <line class="fil0 str0" x1="149.321" y1="107.563" x2="146.207" y2= "104.449" />
  <line class="fil0 str0" x1="144.385" y1="106.261" x2="147.499" y2= "109.385" />
  <polyline class="fil0 str1" points="139.179,107.573 139.87,107.573 140.101,107.503 140.181,107.423 140.251,107.273 140.251,107.112 140.181,106.962 140.101,106.882 139.87,106.812 139.179,106.812 139.179,108.414 "/>
  <line class="fil0 str1" x1="139.72" y1="107.573" x2="140.251" y2= "108.414" />
  <polyline class="fil0 str1" points="140.931,107.112 141.092,107.042 141.322,106.812 141.322,108.414 "/>
  <polyline class="fil0 str1" points="142.623,106.812 142.393,106.882 142.313,107.042 142.313,107.193 142.393,107.343 142.543,107.423 142.854,107.503 143.084,107.573 143.234,107.733 143.314,107.883 143.314,108.114 143.234,108.264 143.154,108.344 142.924,108.414 142.623,108.414 142.393,108.344 142.313,108.264 142.233,108.114 142.233,107.883 142.313,107.733 142.463,107.573 142.693,107.503 143.004,107.423 143.154,107.343 143.234,107.193 143.234,107.042 143.154,106.882 142.924,106.812 142.623,106.812 "/>
  <line class="fil0 str1" x1="100.345" y1="108.614" x2="98.143" y2= "110.817" />
  <line class="fil0 str1" x1="98.143" y1="110.817" x2="100.345" y2= "113.019" />
  <line class="fil0 str1" x1="102.548" y1="110.817" x2="100.345" y2= "108.614" />
  <line class="fil0 str1" x1="100.345" y1="113.019" x2="102.548" y2= "110.817" />
  <line class="fil0 str2" x1="99.895" y1="105.711" x2="97.8026" y2= "105.711" />
  <line class="fil0 str2" x1="98.8438" y1="104.66" x2="98.8438" y2= "106.762" />
  <polyline class="fil0 str1" points="93.3275,111.638 93.2574,111.487 93.0973,111.327 92.9471,111.257 92.6367,111.257 92.4866,111.327 92.3364,111.487 92.2563,111.638 92.1762,111.868 92.1762,112.248 92.2563,112.479 92.3364,112.639 92.4866,112.789 92.6367,112.859 92.9471,112.859 93.0973,112.789 93.2574,112.639 93.3275,112.479 "/>
  <polyline class="fil0 str1" points="94.5489,112.859 94.5489,111.257 93.778,112.328 94.9293,112.328 "/>
  <polyline class="fil0 str1" points="95.54,111.557 95.7002,111.487 95.9305,111.257 95.9305,112.859 "/>
  <line class="fil0 str0" x1="100.746" y1="98.3825" x2="98.9239" y2= "100.195" />
  <line class="fil0 str0" x1="102.037" y1="103.318" x2="103.86" y2= "101.496" />
  <line class="fil0 str0" x1="103.86" y1="101.496" x2="100.746" y2= "98.3825" />
  <line class="fil0 str0" x1="98.9239" y1="100.195" x2="102.037" y2= "103.318" />
  <polyline class="fil0 str1" points="95.8304,98.0021 95.7603,97.8519 95.6001,97.6917 95.4499,97.6217 95.1396,97.6217 94.9894,97.6917 94.8392,97.8519 94.7591,98.0021 94.6791,98.2324 94.6791,98.6128 94.7591,98.843 94.8392,99.0032 94.9894,99.1534 95.1396,99.2235 95.4499,99.2235 95.6001,99.1534 95.7603,99.0032 95.8304,98.843 "/>
  <polyline class="fil0 str1" points="96.5111,97.922 96.6713,97.8519 96.9016,97.6217 96.9016,99.2235 "/>
  <polyline class="fil0 str1" points="98.7336,97.6217 97.9728,97.6217 97.8927,98.3124 97.9728,98.2324 98.203,98.1523 98.4333,98.1523 98.6636,98.2324 98.8137,98.3825 98.8938,98.6128 98.8938,98.773 98.8137,99.0032 98.6636,99.1534 98.4333,99.2235 98.203,99.2235 97.9728,99.1534 97.8927,99.0733 97.8126,98.9231 "/>
  <line class="fil0 str0" x1="104.26" y1="78.7703" x2="101.687" y2= "78.7703" />
  <line class="fil0 str0" x1="101.687" y1="83.1853" x2="104.26" y2= "83.1853" />
  <line class="fil0 str0" x1="104.26" y1="83.1853" x2="104.26" y2= "78.7703" />
  <line class="fil0 str0" x1="101.687" y1="78.7703" x2="101.687" y2= "83.1853" />
  <polyline class="fil0 str1" points="96.1107,80.6825 96.8015,80.6825 97.0317,80.6124 97.1118,80.5323 97.1819,80.3821 97.1819,80.222 97.1118,80.0718 97.0317,79.9917 96.8015,79.9216 96.1107,79.9216 96.1107,81.5234 "/>
  <line class="fil0 str1" x1="96.6513" y1="80.6825" x2="97.1819" y2= "81.5234" />
  <polyline class="fil0 str1" points="98.4033,81.5234 98.4033,79.9216 97.6324,80.9928 98.7837,80.9928 "/>
  <polyline class="fil0 str1" points="99.4745,81.5234 100.245,79.9216 99.1641,79.9216 "/>
  <line class="fil0 str0" x1="164.588" y1="83.6158" x2="162.766" y2= "85.4279" />
  <line class="fil0 str0" x1="165.88" y1="88.5514" x2="167.702" y2= "86.7293" />
  <line class="fil0 str0" x1="167.702" y1="86.7293" x2="164.588" y2= "83.6158" />
  <line class="fil0 str0" x1="162.766" y1="85.4279" x2="165.88" y2= "88.5514" />
  <polyline class="fil0 str1" points="164.819,81.4033 164.748,81.2531 164.588,81.0929 164.438,81.0229 164.128,81.0229 163.977,81.0929 163.827,81.2531 163.747,81.4033 163.667,81.6336 163.667,82.014 163.747,82.2442 163.827,82.4044 163.977,82.5546 164.128,82.6247 164.438,82.6247 164.588,82.5546 164.748,82.4044 164.819,82.2442 "/>
  <polyline class="fil0 str1" points="165.349,81.4033 165.349,81.3232 165.429,81.173 165.499,81.0929 165.659,81.0229 165.96,81.0229 166.12,81.0929 166.19,81.173 166.27,81.3232 166.27,81.4834 166.19,81.6336 166.04,81.8638 165.269,82.6247 166.35,82.6247 "/>
  <polyline class="fil0 str1" points="167.261,81.0229 167.031,81.0929 166.881,81.3232 166.801,81.7136 166.801,81.9439 166.881,82.3243 167.031,82.5546 167.261,82.6247 167.421,82.6247 167.652,82.5546 167.802,82.3243 167.882,81.9439 167.882,81.7136 167.802,81.3232 167.652,81.0929 167.421,81.0229 167.261,81.0229 "/>
  <line class="fil0 str1" x1="167.802" y1="81.3232" x2="166.881" y2= "82.3243" />
  <line class="fil0 str0" x1="167.682" y1="123.181" x2="167.682" y2= "120.608" />
  <line class="fil0 str0" x1="163.277" y1="120.608" x2="163.277" y2= "123.181" />
  <line class="fil0 str0" x1="163.277" y1="123.181" x2="167.682" y2= "123.181" />
  <line class="fil0 str0" x1="167.682" y1="120.608" x2="163.277" y2= "120.608" />
  <polyline class="fil0 str1" points="164.638,118.595 164.568,118.445 164.408,118.285 164.258,118.215 163.947,118.215 163.797,118.285 163.647,118.445 163.567,118.595 163.487,118.826 163.487,119.206 163.567,119.436 163.647,119.597 163.797,119.747 163.947,119.817 164.258,119.817 164.408,119.747 164.568,119.597 164.638,119.436 "/>
  <polyline class="fil0 str1" points="165.86,119.817 165.86,118.215 165.089,119.286 166.24,119.286 "/>
  <polyline class="fil0 str1" points="167.081,118.215 166.851,118.285 166.701,118.515 166.62,118.906 166.62,119.136 166.701,119.517 166.851,119.747 167.081,119.817 167.241,119.817 167.471,119.747 167.622,119.517 167.702,119.136 167.702,118.906 167.622,118.515 167.471,118.285 167.241,118.215 167.081,118.215 "/>
  <line class="fil0 str1" x1="167.622" y1="118.515" x2="166.701" y2= "119.517" />
  <line class="fil0 str0" x1="129.208" y1="125.413" x2="129.208" y2= "127.986" />
  <line class="fil0 str0" x1="133.623" y1="127.986" x2="133.623" y2= "125.413" />
  <line class="fil0 str0" x1="133.623" y1="125.413" x2="129.208" y2= "125.413" />
  <line class="fil0 str0" x1="129.208" y1="127.986" x2="133.623" y2= "127.986" />
  <polyline class="fil0 str1" points="127.416,123.932 128.107,123.932 128.337,123.861 128.417,123.781 128.487,123.631 128.487,123.471 128.417,123.321 128.337,123.241 128.107,123.171 127.416,123.171 127.416,124.772 "/>
  <line class="fil0 str1" x1="127.957" y1="123.932" x2="128.487" y2= "124.772" />
  <polyline class="fil0 str1" points="129.939,123.401 129.859,123.241 129.629,123.171 129.479,123.171 129.248,123.241 129.098,123.471 129.018,123.861 129.018,124.242 129.098,124.552 129.248,124.702 129.479,124.772 129.559,124.772 129.789,124.702 129.939,124.552 130.019,124.322 130.019,124.242 129.939,124.012 129.789,123.861 129.559,123.781 129.479,123.781 129.248,123.861 129.098,124.012 129.018,124.242 "/>
  <polyline class="fil0 str1" points="130.86,123.171 130.63,123.241 130.55,123.401 130.55,123.551 130.63,123.701 130.78,123.781 131.09,123.861 131.321,123.932 131.471,124.092 131.551,124.242 131.551,124.472 131.471,124.622 131.391,124.702 131.16,124.772 130.86,124.772 130.63,124.702 130.55,124.622 130.47,124.472 130.47,124.242 130.55,124.092 130.7,123.932 130.93,123.861 131.241,123.781 131.391,123.701 131.471,123.551 131.471,123.401 131.391,123.241 131.16,123.171 130.86,123.171 "/>
  <line class="fil0 str0" x1="138.709" y1="127.956" x2="138.709" y2= "125.383" />
  <line class="fil0 str0" x1="134.294" y1="125.383" x2="134.294" y2= "127.956" />
  <line class="fil0 str0" x1="134.294" y1="127.956" x2="138.709" y2= "127.956" />
  <line class="fil0 str0" x1="138.709" y1="125.383" x2="134.294" y2= "125.383" />
  <polyline class="fil0 str1" points="135.776,123.251 135.706,123.101 135.545,122.94 135.395,122.87 135.085,122.87 134.935,122.94 134.785,123.101 134.704,123.251 134.624,123.481 134.624,123.861 134.704,124.092 134.785,124.252 134.935,124.402 135.085,124.472 135.395,124.472 135.545,124.402 135.706,124.252 135.776,124.092 "/>
  <polyline class="fil0 str1" points="136.306,123.251 136.306,123.171 136.386,123.02 136.456,122.94 136.617,122.87 136.917,122.87 137.077,122.94 137.147,123.02 137.227,123.171 137.227,123.331 137.147,123.481 136.997,123.711 136.226,124.472 137.307,124.472 "/>
  <polyline class="fil0 str1" points="138.148,122.87 137.918,122.94 137.838,123.101 137.838,123.251 137.918,123.401 138.068,123.481 138.379,123.561 138.609,123.631 138.759,123.791 138.839,123.942 138.839,124.172 138.759,124.322 138.679,124.402 138.449,124.472 138.148,124.472 137.918,124.402 137.838,124.322 137.758,124.172 137.758,123.942 137.838,123.791 137.988,123.631 138.218,123.561 138.529,123.481 138.679,123.401 138.759,123.251 138.759,123.101 138.679,122.94 138.449,122.87 138.148,122.87 "/>
  <line class="fil0 str0" x1="134.554" y1="86.6192" x2="137.127" y2= "86.6192" />
  <line class="fil0 str0" x1="137.127" y1="82.2042" x2="134.554" y2= "82.2042" />
  <line class="fil0 str0" x1="134.554" y1="82.2042" x2="134.554" y2= "86.6192" />
  <line class="fil0 str0" x1="137.127" y1="86.6192" x2="137.127" y2= "82.2042" />
  <polyline class="fil0 str1" points="132.892,81.6035 132.892,80.9127 132.822,80.6825 132.742,80.6024 132.592,80.5323 132.432,80.5323 132.282,80.6024 132.202,80.6825 132.131,80.9127 132.131,81.6035 133.733,81.6035 "/>
  <line class="fil0 str1" x1="132.892" y1="81.0629" x2="133.733" y2= "80.5323" />
  <polyline class="fil0 str1" points="132.432,79.8515 132.362,79.6914 132.131,79.4611 133.733,79.4611 "/>
  <polyline class="fil0 str1" points="132.131,77.629 132.131,78.3899 132.822,78.47 132.742,78.3899 132.662,78.1596 132.662,77.9294 132.742,77.6991 132.892,77.5489 133.123,77.4688 133.283,77.4688 133.513,77.5489 133.663,77.6991 133.733,77.9294 133.733,78.1596 133.663,78.3899 133.583,78.47 133.433,78.5501 "/>
  <line class="fil0 str0" x1="134.284" y1="82.2042" x2="131.711" y2= "82.2042" />
  <line class="fil0 str0" x1="131.711" y1="86.6192" x2="134.284" y2= "86.6192" />
  <line class="fil0 str0" x1="134.284" y1="86.6192" x2="134.284" y2= "82.2042" />
  <line class="fil0 str0" x1="131.711" y1="82.2042" x2="131.711" y2= "86.6192" />
  <polyline class="fil0 str1" points="135.836,81.6636 135.836,80.9728 135.766,80.7425 135.685,80.6625 135.535,80.5924 135.375,80.5924 135.225,80.6625 135.145,80.7425 135.075,80.9728 135.075,81.6636 136.677,81.6636 "/>
  <line class="fil0 str1" x1="135.836" y1="81.123" x2="136.677" y2= "80.5924" />
  <polyline class="fil0 str1" points="135.375,79.9116 135.305,79.7514 135.075,79.5212 136.677,79.5212 "/>
  <polyline class="fil0 str1" points="135.305,77.609 135.145,77.6891 135.075,77.9194 135.075,78.0695 135.145,78.2998 135.375,78.45 135.766,78.53 136.146,78.53 136.456,78.45 136.607,78.2998 136.677,78.0695 136.677,77.9894 136.607,77.7592 136.456,77.609 136.226,77.5289 136.146,77.5289 135.916,77.609 135.766,77.7592 135.685,77.9894 135.685,78.0695 135.766,78.2998 135.916,78.45 136.146,78.53 "/>
  <line class="fil0 str0" x1="116.033" y1="132.071" x2="116.033" y2= "129.488" />
  <line class="fil0 str0" x1="111.618" y1="129.488" x2="111.618" y2= "132.071" />
  <line class="fil0 str0" x1="111.618" y1="132.071" x2="116.033" y2= "132.071" />
  <line class="fil0 str0" x1="116.033" y1="129.488" x2="111.618" y2= "129.488" />
  <polyline class="fil0 str1" points="114.612,133.983 115.302,133.983 115.533,133.913 115.613,133.833 115.683,133.683 115.683,133.522 115.613,133.372 115.533,133.292 115.302,133.222 114.612,133.222 114.612,134.824 "/>
  <line class="fil0 str1" x1="115.152" y1="133.983" x2="115.683" y2= "134.824" />
  <polyline class="fil0 str1" points="116.213,133.602 116.213,133.522 116.293,133.372 116.364,133.292 116.524,133.222 116.824,133.222 116.984,133.292 117.054,133.372 117.135,133.522 117.135,133.683 117.054,133.833 116.904,134.063 116.133,134.824 117.215,134.824 "/>
  <polyline class="fil0 str1" points="117.745,133.602 117.745,133.522 117.825,133.372 117.895,133.292 118.055,133.222 118.356,133.222 118.516,133.292 118.586,133.372 118.666,133.522 118.666,133.683 118.586,133.833 118.436,134.063 117.665,134.824 118.746,134.824 "/>
  <line class="fil0 str0" x1="115.242" y1="102.757" x2="113.42" y2= "100.935" />
  <line class="fil0 str0" x1="110.297" y1="104.059" x2="112.119" y2= "105.871" />
  <line class="fil0 str0" x1="112.119" y1="105.871" x2="115.242" y2= "102.757" />
  <line class="fil0 str0" x1="113.42" y1="100.935" x2="110.297" y2= "104.059" />
  <polyline class="fil0 str1" points="116.974,103.649 116.904,103.498 116.744,103.338 116.594,103.268 116.284,103.268 116.133,103.338 115.983,103.498 115.903,103.649 115.823,103.879 115.823,104.259 115.903,104.489 115.983,104.65 116.133,104.8 116.284,104.87 116.594,104.87 116.744,104.8 116.904,104.65 116.974,104.489 "/>
  <polyline class="fil0 str1" points="117.655,103.568 117.815,103.498 118.046,103.268 118.046,104.87 "/>
  <polyline class="fil0 str1" points="119.117,103.268 119.958,103.268 119.497,103.879 119.727,103.879 119.878,103.959 119.958,104.029 120.038,104.259 120.038,104.419 119.958,104.65 119.808,104.8 119.577,104.87 119.347,104.87 119.117,104.8 119.037,104.72 118.957,104.57 "/>
  <line class="fil0 str0" x1="149.912" y1="77.1285" x2="149.912" y2= "79.7014" />
  <line class="fil0 str0" x1="154.327" y1="79.7014" x2="154.327" y2= "77.1285" />
  <line class="fil0 str0" x1="154.327" y1="77.1285" x2="149.912" y2= "77.1285" />
  <line class="fil0 str0" x1="149.912" y1="79.7014" x2="154.327" y2= "79.7014" />
  <polyline class="fil0 str1" points="156.369,77.9694 156.299,77.8192 156.139,77.6591 155.988,77.589 155.678,77.589 155.528,77.6591 155.378,77.8192 155.298,77.9694 155.218,78.1997 155.218,78.5801 155.298,78.8104 155.378,78.9705 155.528,79.1207 155.678,79.1908 155.988,79.1908 156.139,79.1207 156.299,78.9705 156.369,78.8104 "/>
  <polyline class="fil0 str1" points="157.05,77.8893 157.21,77.8192 157.44,77.589 157.44,79.1908 "/>
  <polyline class="fil0 str1" points="158.812,77.589 158.581,77.6591 158.431,77.8893 158.351,78.2798 158.351,78.51 158.431,78.8905 158.581,79.1207 158.812,79.1908 158.972,79.1908 159.202,79.1207 159.352,78.8905 159.432,78.51 159.432,78.2798 159.352,77.8893 159.202,77.6591 158.972,77.589 158.812,77.589 "/>
  <line class="fil0 str1" x1="159.352" y1="77.8893" x2="158.431" y2= "78.8905" />
  <line class="fil0 str0" x1="113.15" y1="128.937" x2="113.15" y2= "126.364" />
  <line class="fil0 str0" x1="108.745" y1="126.364" x2="108.745" y2= "128.937" />
  <line class="fil0 str0" x1="108.745" y1="128.937" x2="113.15" y2= "128.937" />
  <line class="fil0 str0" x1="113.15" y1="126.364" x2="108.745" y2= "126.364" />
  <polyline class="fil0 str1" points="116.944,130.549 117.635,130.549 117.865,130.479 117.945,130.399 118.016,130.249 118.016,130.088 117.945,129.938 117.865,129.858 117.635,129.788 116.944,129.788 116.944,131.39 "/>
  <line class="fil0 str1" x1="117.485" y1="130.549" x2="118.016" y2= "131.39" />
  <polyline class="fil0 str1" points="118.546,130.168 118.546,130.088 118.626,129.938 118.696,129.858 118.856,129.788 119.157,129.788 119.317,129.858 119.387,129.938 119.467,130.088 119.467,130.249 119.387,130.399 119.237,130.629 118.466,131.39 119.547,131.39 "/>
  <polyline class="fil0 str1" points="120.228,130.088 120.388,130.018 120.618,129.788 120.618,131.39 "/>
  <line class="fil0 str0" x1="113.15" y1="125.814" x2="113.15" y2= "123.241" />
  <line class="fil0 str0" x1="108.745" y1="123.241" x2="108.745" y2= "125.814" />
  <line class="fil0 str0" x1="108.745" y1="125.814" x2="113.15" y2= "125.814" />
  <line class="fil0 str0" x1="113.15" y1="123.241" x2="108.745" y2= "123.241" />
  <polyline class="fil0 str1" points="114.121,127.616 114.812,127.616 115.042,127.546 115.122,127.466 115.192,127.315 115.192,127.155 115.122,127.005 115.042,126.925 114.812,126.855 114.121,126.855 114.121,128.457 "/>
  <line class="fil0 str1" x1="114.662" y1="127.616" x2="115.192" y2= "128.457" />
  <polyline class="fil0 str1" points="115.723,127.235 115.723,127.155 115.803,127.005 115.873,126.925 116.033,126.855 116.334,126.855 116.494,126.925 116.564,127.005 116.644,127.155 116.644,127.315 116.564,127.466 116.414,127.696 115.643,128.457 116.724,128.457 "/>
  <polyline class="fil0 str1" points="117.635,126.855 117.405,126.925 117.255,127.155 117.174,127.546 117.174,127.776 117.255,128.156 117.405,128.387 117.635,128.457 117.795,128.457 118.025,128.387 118.176,128.156 118.256,127.776 118.256,127.546 118.176,127.155 118.025,126.925 117.795,126.855 117.635,126.855 "/>
  <line class="fil0 str1" x1="118.176" y1="127.155" x2="117.255" y2= "128.156" />
  <line class="fil0 str0" x1="153.836" y1="110.306" x2="155.658" y2= "112.128" />
  <line class="fil0 str0" x1="158.772" y1="109.005" x2="156.96" y2= "107.183" />
  <line class="fil0 str0" x1="156.96" y1="107.183" x2="153.836" y2= "110.306" />
  <line class="fil0 str0" x1="155.658" y1="112.128" x2="158.772" y2= "109.005" />
  <polyline class="fil0 str1" points="151.283,112.098 151.213,111.948 151.053,111.788 150.903,111.718 150.592,111.718 150.442,111.788 150.292,111.948 150.212,112.098 150.132,112.328 150.132,112.709 150.212,112.939 150.292,113.099 150.442,113.249 150.592,113.319 150.903,113.319 151.053,113.249 151.213,113.099 151.283,112.939 "/>
  <polyline class="fil0 str1" points="151.964,112.018 152.124,111.948 152.354,111.718 152.354,113.319 "/>
  <polyline class="fil0 str1" points="154.267,112.248 154.186,112.479 154.036,112.639 153.806,112.709 153.726,112.709 153.496,112.639 153.345,112.479 153.265,112.248 153.265,112.178 153.345,111.948 153.496,111.788 153.726,111.718 153.806,111.718 154.036,111.788 154.186,111.948 154.267,112.248 154.267,112.639 154.186,113.019 154.036,113.249 153.806,113.319 153.656,113.319 153.426,113.249 153.345,113.099 "/>
  <line class="fil0 str1" x1="109.726" y1="112.108" x2="109.726" y2= "120.928" />
  <line class="fil0 str1" x1="120.188" y1="112.088" x2="120.198" y2= "120.928" />
  <line class="fil0 str1" x1="109.776" y1="120.918" x2="120.188" y2= "120.918" />
  <line class="fil0 str1" x1="109.776" y1="112.088" x2="120.188" y2= "112.088" />
  <polyline class="fil0 str1" points="104.771,115.762 104.771,117.364 105.311,117.364 105.541,117.294 105.691,117.144 105.762,116.984 105.842,116.753 105.842,116.373 105.762,116.143 105.691,115.993 105.541,115.842 105.311,115.762 104.771,115.762 "/>
  <polyline class="fil0 str1" points="106.372,115.762 106.372,117.364 106.913,117.364 107.143,117.294 107.293,117.144 107.363,116.984 107.444,116.753 107.444,116.373 107.363,116.143 107.293,115.993 107.143,115.842 106.913,115.762 106.372,115.762 "/>
  <polyline class="fil0 str1" points="108.134,116.073 108.295,115.993 108.525,115.762 108.525,117.364 "/>
  <line class="fil0 str0" x1="106.382" y1="104.75" x2="104.56" y2= "106.572" />
  <line class="fil0 str0" x1="107.674" y1="109.685" x2="109.496" y2= "107.873" />
  <line class="fil0 str0" x1="109.496" y1="107.873" x2="106.382" y2= "104.75" />
  <line class="fil0 str0" x1="104.56" y1="106.572" x2="107.674" y2= "109.685" />
  <polyline class="fil0 str1" points="110.537,109.405 110.467,109.255 110.307,109.095 110.157,109.025 109.846,109.025 109.696,109.095 109.546,109.255 109.466,109.405 109.386,109.635 109.386,110.016 109.466,110.246 109.546,110.406 109.696,110.556 109.846,110.626 110.157,110.626 110.307,110.556 110.467,110.406 110.537,110.246 "/>
  <polyline class="fil0 str1" points="111.218,109.325 111.378,109.255 111.608,109.025 111.608,110.626 "/>
  <polyline class="fil0 str1" points="113.29,110.626 113.29,109.025 112.519,110.096 113.671,110.096 "/>
  <line class="fil0 str1" x1="218.97" y1="163.817" x2="218.97" y2= "46.1834" />
  <line class="fil0 str1" x1="78.0502" y1="163.817" x2="78.0502" y2= "46.1834" />
  <line class="fil0 str1" x1="218.97" y1="163.817" x2="78.0502" y2= "163.817" />
  <line class="fil0 str1" x1="218.97" y1="46.1834" x2="78.0502" y2= "46.1834" />
  <line class="fil0 str3" x1="218.97" y1="163.817" x2="78.0502" y2= "163.817" />
  <line class="fil0 str3" x1="78.0502" y1="163.817" x2="78.0502" y2= "46.1834" />
  <line class="fil0 str3" x1="78.0502" y1="46.1834" x2="218.97" y2= "46.1834" />
  <line class="fil0 str3" x1="218.97" y1="46.1834" x2="218.97" y2= "163.817" />
 </g>
</svg>
